<svg xmlns="http://www.w3.org/2000/svg" viewBox="0 0 260 190" fill="none">
<defs>
  <radialGradient id="bg" cx="50%" cy="40%" r="68%"><stop offset="0" stop-color="#123a60" stop-opacity=".75"/><stop offset=".55" stop-color="#071827" stop-opacity=".35"/><stop offset="1" stop-color="#020812" stop-opacity="0"/></radialGradient>
  <linearGradient id="cyan" x1="0" y1="0" x2="260" y2="190" gradientUnits="userSpaceOnUse"><stop stop-color="#58EAFF"/><stop offset=".52" stop-color="#00BDFE"/><stop offset="1" stop-color="#0A58FF"/></linearGradient>
  <linearGradient id="green" x1="0" y1="0" x2="260" y2="190" gradientUnits="userSpaceOnUse"><stop stop-color="#7DFFAE"/><stop offset="1" stop-color="#0ACF62"/></linearGradient>
  <filter id="glow" x="-60%" y="-60%" width="220%" height="220%"><feGaussianBlur stdDeviation="5" result="b"/><feMerge><feMergeNode in="b"/><feMergeNode in="SourceGraphic"/></feMerge></filter>
  <filter id="soft" x="-60%" y="-60%" width="220%" height="220%"><feGaussianBlur stdDeviation="10" result="b"/><feMerge><feMergeNode in="b"/><feMergeNode in="SourceGraphic"/></feMerge></filter>
</defs>
<rect width="260" height="190" rx="34" fill="url(#bg)"/>
<g filter="url(#glow)">
  <path d="M36 92c34-30 68-30 103-1M224 92c-34-30-68-30-103-1" stroke="#3D5C78" stroke-width="10" stroke-linecap="round"/>
  <path d="M44 108c28-18 55-20 81-5M216 108c-28-18-55-20-81-5" stroke="#27415B" stroke-width="10" stroke-linecap="round"/>
  <path d="M130 48l13 38 40 13-40 13-13 38-13-38-40-13 40-13 13-38Z" fill="#FFB347"/>
  <path d="M130 68l7 23 23 8-23 8-7 23-8-23-23-8 23-8 8-23Z" fill="#fff" opacity=".92"/>
  <path d="M72 84h38M150 84h38" stroke="#00C8FF" stroke-width="4" stroke-linecap="round" opacity=".85"/>
</g>
<ellipse cx="130" cy="147" rx="84" ry="10" fill="#FF8B1A" opacity=".18" filter="url(#soft)"/>
</svg>
